<?xml version="1.0" encoding="UTF-8" standalone="no"?>
<!-- Created with Inkscape (http://www.inkscape.org/) -->

<svg
   xmlns:dc="http://purl.org/dc/elements/1.1/"
   xmlns:cc="http://creativecommons.org/ns#"
   xmlns:rdf="http://www.w3.org/1999/02/22-rdf-syntax-ns#"
   xmlns:svg="http://www.w3.org/2000/svg"
   xmlns="http://www.w3.org/2000/svg"
   xmlns:sodipodi="http://sodipodi.sourceforge.net/DTD/sodipodi-0.dtd"
   xmlns:inkscape="http://www.inkscape.org/namespaces/inkscape"
   width="210mm"
   height="297mm"
   viewBox="0 0 210 297"
   version="1.1"
   id="svg4978"
   sodipodi:docname="nominaldeviation.svg"
   inkscape:version="0.92.5 (2060ec1f9f, 2020-04-08)">
  <defs
     id="defs4972" />
  <sodipodi:namedview
     id="base"
     pagecolor="#ffffff"
     bordercolor="#666666"
     borderopacity="1.0"
     inkscape:pageopacity="0.0"
     inkscape:pageshadow="2"
     inkscape:zoom="3.959798"
     inkscape:cx="205.632"
     inkscape:cy="83.774715"
     inkscape:document-units="mm"
     inkscape:current-layer="layer1"
     showgrid="false"
     inkscape:window-width="3768"
     inkscape:window-height="2089"
     inkscape:window-x="72"
     inkscape:window-y="34"
     inkscape:window-maximized="1" />
  <metadata
     id="metadata4975">
    <rdf:RDF>
      <cc:Work
         rdf:about="">
        <dc:format>image/svg+xml</dc:format>
        <dc:type
           rdf:resource="http://purl.org/dc/dcmitype/StillImage" />
      </cc:Work>
    </rdf:RDF>
  </metadata>
  <g
     inkscape:label="Layer 1"
     inkscape:groupmode="layer"
     id="layer1">
    <path
       style="opacity:1;fill:#a2fbea;fill-opacity:1;stroke:none;stroke-width:3.37901092;stroke-linecap:round;stroke-linejoin:round;stroke-miterlimit:4;stroke-dasharray:none;stroke-opacity:1"
       d="M 115.57812 975.54102 A 60.532021 60.532021 0 0 1 82.048828 985.72461 A 60.532021 60.532021 0 0 1 80.417969 985.64258 L 80.417969 1000.8535 L 350.56641 1000.8535 L 350.56641 985.7168 A 60.532021 60.532021 0 0 1 350.34766 985.72461 A 60.532021 60.532021 0 0 1 316.80078 975.54102 A 60.532021 60.532021 0 0 1 283.27344 985.72461 A 60.532021 60.532021 0 0 1 249.72656 975.54102 A 60.532021 60.532021 0 0 1 216.19922 985.72461 A 60.532021 60.532021 0 0 1 182.65234 975.54102 A 60.532021 60.532021 0 0 1 149.125 985.72461 A 60.532021 60.532021 0 0 1 115.57812 975.54102 z "
       transform="scale(0.26458333)"
       id="rect5523-8"
       inkscape:export-xdpi="96.126602"
       inkscape:export-ydpi="96.126602" />
    <rect
       style="opacity:1;fill:#0cf4c7;fill-opacity:1;stroke:none;stroke-width:0.53681779;stroke-linecap:round;stroke-linejoin:round;stroke-miterlimit:4;stroke-dasharray:none;stroke-opacity:1"
       id="rect5523"
       width="71.635895"
       height="6.1323442"
       x="21.126322"
       y="260.79605"
       inkscape:export-xdpi="96.126602"
       inkscape:export-ydpi="96.126602" />
    <path
       id="path4182"
       style="fill:none;stroke:#ff0000;stroke-width:1;stroke-linecap:round;stroke-linejoin:round;stroke-miterlimit:4;stroke-dasharray:none;stroke-opacity:1"
       d="m 96.406802,257.22254 v 3.12076 m -1.718667,0.15678 h 3.437347 m -3.437347,-3.42673 h 3.437347"
       inkscape:connector-curvature="0"
       inkscape:export-xdpi="96.126602"
       inkscape:export-ydpi="96.126602" />
  </g>
</svg>
