<?xml version="1.0" encoding="UTF-8" standalone="no"?>
<!-- Svg Vector Icons : http://www.onlinewebfonts.com/icon -->

<svg
   xmlns:dc="http://purl.org/dc/elements/1.1/"
   xmlns:cc="http://creativecommons.org/ns#"
   xmlns:rdf="http://www.w3.org/1999/02/22-rdf-syntax-ns#"
   xmlns:svg="http://www.w3.org/2000/svg"
   xmlns="http://www.w3.org/2000/svg"
   xmlns:sodipodi="http://sodipodi.sourceforge.net/DTD/sodipodi-0.dtd"
   xmlns:inkscape="http://www.inkscape.org/namespaces/inkscape"
   version="1.1"
   x="0px"
   y="0px"
   viewBox="0 0 1000 1000"
   enable-background="new 0 0 1000 1000"
   xml:space="preserve"
   id="svg29680"
   sodipodi:docname="help.svg"
   inkscape:version="0.92.5 (2060ec1f9f, 2020-04-08)"><defs
   id="defs29684" /><sodipodi:namedview
   pagecolor="#ffffff"
   bordercolor="#666666"
   borderopacity="1"
   objecttolerance="10"
   gridtolerance="10"
   guidetolerance="10"
   inkscape:pageopacity="0"
   inkscape:pageshadow="2"
   inkscape:window-width="3768"
   inkscape:window-height="2089"
   id="namedview29682"
   showgrid="false"
   inkscape:zoom="1.3350176"
   inkscape:cx="661.14352"
   inkscape:cy="619.56758"
   inkscape:window-x="72"
   inkscape:window-y="34"
   inkscape:window-maximized="1"
   inkscape:current-layer="svg29680" />
<metadata
   id="metadata29670"> Svg Vector Icons : http://www.onlinewebfonts.com/icon <rdf:RDF><cc:Work
     rdf:about=""><dc:format>image/svg+xml</dc:format><dc:type
       rdf:resource="http://purl.org/dc/dcmitype/StillImage" /></cc:Work></rdf:RDF></metadata>
<g
   id="g29678"
   style="fill:#c8c8c8;fill-opacity:1"><path
     d="M500.1,9.9C229.4,9.9,10,229.1,10,499.8c0,270.7,219.4,490.3,490.1,490.3S990,770.5,990,499.8C990,229.1,770.7,9.9,500.1,9.9z M500.3,879.2c-209.5,0-379.6-169.9-379.6-379.5c0-209.4,170-379,379.6-379c209.2,0,379,169.6,379,379C879.2,709.4,709.5,879.2,500.3,879.2z"
     id="path29672"
     style="fill:#c8c8c8;fill-opacity:1" /><path
     d="M457.7,645.5h93v-72.7c0-19.6,9.2-38,33.8-54.2c24.3-16.1,92.7-48.6,92.7-134.1c0-85.7-71.8-144.7-132-157.2c-60.5-12.5-125.9-4.3-172.1,46.5c-41.6,45.3-50.3,81.5-50.3,160.9h93v-18.6c0-42.1,4.9-86.9,65.4-99.1c33-6.7,64,3.8,82.3,21.6c21.1,20.6,21.1,66.7-12.3,89.9l-52.5,35.5c-30.6,19.8-40.9,41.6-40.9,73.7V645.5L457.7,645.5z"
     id="path29674"
     style="fill:#c8c8c8;fill-opacity:1" /><path
     d="M504.3,681.9c26.3,0,47.8,21.4,47.8,47.9c0,26.5-21.5,47.8-47.8,47.8c-26.6,0-48.3-21.4-48.3-47.8C456.1,703.3,477.7,681.9,504.3,681.9z"
     id="path29676"
     style="fill:#c8c8c8;fill-opacity:1" /></g>
</svg>