<?xml version="1.0" encoding="UTF-8" standalone="no"?>
<!-- Generator: Adobe Illustrator 19.0.0, SVG Export Plug-In . SVG Version: 6.00 Build 0)  -->

<svg
   xmlns:dc="http://purl.org/dc/elements/1.1/"
   xmlns:cc="http://creativecommons.org/ns#"
   xmlns:rdf="http://www.w3.org/1999/02/22-rdf-syntax-ns#"
   xmlns:svg="http://www.w3.org/2000/svg"
   xmlns="http://www.w3.org/2000/svg"
   xmlns:sodipodi="http://sodipodi.sourceforge.net/DTD/sodipodi-0.dtd"
   xmlns:inkscape="http://www.inkscape.org/namespaces/inkscape"
   version="1.1"
   id="Layer_1"
   x="0px"
   y="0px"
   viewBox="0 0 383.748 383.748"
   style="enable-background:new 0 0 383.748 383.748;"
   xml:space="preserve"
   sodipodi:docname="refresh.svg"
   inkscape:version="0.92.5 (2060ec1f9f, 2020-04-08)"><metadata
   id="metadata30332"><rdf:RDF><cc:Work
       rdf:about=""><dc:format>image/svg+xml</dc:format><dc:type
         rdf:resource="http://purl.org/dc/dcmitype/StillImage" /></cc:Work></rdf:RDF></metadata><defs
   id="defs30330" /><sodipodi:namedview
   pagecolor="#ffffff"
   bordercolor="#666666"
   borderopacity="1"
   objecttolerance="10"
   gridtolerance="10"
   guidetolerance="10"
   inkscape:pageopacity="0"
   inkscape:pageshadow="2"
   inkscape:window-width="3768"
   inkscape:window-height="2089"
   id="namedview30328"
   showgrid="false"
   inkscape:zoom="1.7394457"
   inkscape:cx="828.85516"
   inkscape:cy="-72.647395"
   inkscape:window-x="72"
   inkscape:window-y="34"
   inkscape:window-maximized="1"
   inkscape:current-layer="Layer_1" />
<g
   id="g30295"
   transform="matrix(-0.96213029,0,0,0.96213029,376.48181,7.2662307)"
   style="fill:#b674c7;fill-opacity:1;stroke:#b674c7;stroke-width:15.11999125;stroke-miterlimit:4;stroke-dasharray:none;stroke-opacity:1;stroke-linecap:round;stroke-linejoin:round">
	<path
   d="M 62.772,95.042 C 90.904,54.899 137.496,30 187.343,30 c 83.743,0 151.874,68.13 151.874,151.874 h 30 C 369.217,81.588 287.629,0 187.343,0 152.305,0 118.282,9.989 88.952,28.888 70.368,40.862 54.245,56.032 41.221,73.593 L 2.081,34.641 v 113.365 h 113.91 z"
   id="path30291"
   inkscape:connector-curvature="0"
   style="fill:#b674c7;fill-opacity:1;stroke:#b674c7;stroke-width:15.11999125;stroke-miterlimit:4;stroke-dasharray:none;stroke-opacity:1;stroke-linecap:round;stroke-linejoin:round" />
	<path
   d="m 381.667,235.742 h -113.91 l 53.219,52.965 c -28.132,40.142 -74.724,65.042 -124.571,65.042 -83.744,0 -151.874,-68.13 -151.874,-151.874 h -30 c 0,100.286 81.588,181.874 181.874,181.874 35.038,0 69.062,-9.989 98.391,-28.888 18.584,-11.975 34.707,-27.145 47.731,-44.706 l 39.139,38.952 V 235.742 Z"
   id="path30293"
   inkscape:connector-curvature="0"
   style="fill:#b674c7;fill-opacity:1;stroke:#b674c7;stroke-width:15.11999125;stroke-miterlimit:4;stroke-dasharray:none;stroke-opacity:1;stroke-linecap:round;stroke-linejoin:round" />
</g>
<g
   id="g30297"
   transform="matrix(-0.96213029,0,0,0.96213029,376.48181,7.2662307)">
</g>
<g
   id="g30299"
   transform="matrix(-0.96213029,0,0,0.96213029,376.48181,7.2662307)">
</g>
<g
   id="g30301"
   transform="matrix(-0.96213029,0,0,0.96213029,376.48181,7.2662307)">
</g>
<g
   id="g30303"
   transform="matrix(-0.96213029,0,0,0.96213029,376.48181,7.2662307)">
</g>
<g
   id="g30305"
   transform="matrix(-0.96213029,0,0,0.96213029,376.48181,7.2662307)">
</g>
<g
   id="g30307"
   transform="matrix(-0.96213029,0,0,0.96213029,376.48181,7.2662307)">
</g>
<g
   id="g30309"
   transform="matrix(-0.96213029,0,0,0.96213029,376.48181,7.2662307)">
</g>
<g
   id="g30311"
   transform="matrix(-0.96213029,0,0,0.96213029,376.48181,7.2662307)">
</g>
<g
   id="g30313"
   transform="matrix(-0.96213029,0,0,0.96213029,376.48181,7.2662307)">
</g>
<g
   id="g30315"
   transform="matrix(-0.96213029,0,0,0.96213029,376.48181,7.2662307)">
</g>
<g
   id="g30317"
   transform="matrix(-0.96213029,0,0,0.96213029,376.48181,7.2662307)">
</g>
<g
   id="g30319"
   transform="matrix(-0.96213029,0,0,0.96213029,376.48181,7.2662307)">
</g>
<g
   id="g30321"
   transform="matrix(-0.96213029,0,0,0.96213029,376.48181,7.2662307)">
</g>
<g
   id="g30323"
   transform="matrix(-0.96213029,0,0,0.96213029,376.48181,7.2662307)">
</g>
<g
   id="g30325"
   transform="matrix(-0.96213029,0,0,0.96213029,376.48181,7.2662307)">
</g>
</svg>